# xmcd
#
# Track frame offsets:
#       150
#       14810
#       28122
#       40478
#       55374
#       67077
#       79609
#       93098
#       107568
#       120573
#       134635
#       147879
#
# Disc length: 2139 seconds
#
# Revision: 2
# Processed by: cddbd v1.5.2PL0 Copyright (c) Steve Scherf et al.
# Submitted via: FreeDbEdit v0.1
#
DISCID=ab08590c
DTITLE=The Four Tops - Greatest Hits [CD1]
DYEAR=1999
DGENRE=Soul
TTITLE0=Reach Out (I'll Be There)
TTITLE1=Baby I Need Your Lovin'
TTITLE2=I Can't Help Myself
TTITLE3=Ain't No Woman
TTITLE4=It's All in the Game
TTITLE5=It's the Same Old Song
TTITLE6=Just Seven Numbers
TTITLE7=Bernadette
TTITLE8=Shake Me, Wake Me
TTITLE9=You Keep Runnin' Away
TTITLE10=Something About You
TTITLE11=Walk Away Renee
EXTD=
EXTT0=
EXTT1=
EXTT2=
EXTT3=
EXTT4=
EXTT5=
EXTT6=
EXTT7=
EXTT8=
EXTT9=
EXTT10=
EXTT11=
PLAYORDER=
